<?xml version="1.0" encoding="utf-8"?>
<!-- Generator: Adobe Illustrator 19.0.0, SVG Export Plug-In . SVG Version: 6.00 Build 0)  -->
<svg version="1.1" id="Capa_1" xmlns="http://www.w3.org/2000/svg" xmlns:xlink="http://www.w3.org/1999/xlink" x="0px" y="0px"
	 viewBox="0 0 285 56.7" style="enable-background:new 0 0 285 56.7;" xml:space="preserve">
<style type="text/css">
	.st0{opacity:0.7;fill:#27709F;}
	.st1{fill:#27709F;}
</style>
<g>
	<path class="st0" d="M9.6,44c-3.5-0.1-6.7-1.4-9.6-3.7l2.4-3c2.5,2,5.1,3,7.6,3c3,0,5.2-0.6,6.8-1.8c1.5-1.2,2.3-2.9,2.3-5.1
		c0-1.9-0.5-3.4-1.5-4.5c-0.5-0.6-1.4-1.3-2.5-2.1C13.9,26,12.4,25,10.6,24c-4.1-2.4-6.8-4.5-8-6.1C1.5,16.2,1,14.2,1,12
		c0-3,1.2-5.6,3.5-7.7c2.3-2.1,5.4-3.1,9.2-3.1c3.5,0.1,6.7,1.4,9.7,3.7l-2.4,3c-2.5-2-5-3-7.6-3c-2.6,0-4.7,0.6-6.2,1.9
		C5.7,8,5,9.7,5,11.7c0,1,0.1,1.8,0.4,2.6c0.2,0.8,0.6,1.4,1.1,2c0.5,0.6,1.4,1.3,2.6,2.1c1.2,0.8,2.7,1.8,4.4,2.7
		c1.8,1,3.4,2.1,4.7,3.1c1.3,1,2.3,1.9,3,2.8c1.3,1.7,2,3.7,2,6c0,3.3-1.1,5.9-3.4,8C17.5,43,14.1,44,9.6,44L9.6,44z"/>
	<path class="st0" d="M39.4,44c-2.2,0-4.1-0.4-5.8-1.1c-1.7-0.7-3.2-1.8-4.5-3.2c-2.5-2.9-3.8-6.5-3.8-11c0-2.5,0.3-4.7,1-6.6
		c0.6-1.9,1.6-3.6,3-5c2.6-2.8,6.1-4.2,10.4-4.2c4.2,0,7.6,1.4,10.1,4.2c2.4,2.8,3.7,6.6,3.7,11.4c0,4.6-1.3,8.3-3.8,11.1
		C47.2,42.6,43.8,44,39.4,44z M39.6,16.5c-3.2,0-5.7,1.1-7.6,3.2c-1.9,2.1-2.8,5.1-2.8,9.1c0,3.6,0.9,6.5,2.8,8.6
		c1.9,2.1,4.4,3.2,7.6,3.2c3.2,0,5.7-1,7.5-3.2c1.8-2.1,2.6-5.1,2.6-8.9c0-3.9-0.9-6.9-2.6-9C45.3,17.5,42.8,16.5,39.6,16.5z"/>
	<path class="st0" d="M60.4,35.4c0,1.8,0.3,3.1,0.8,3.8c0.5,0.8,1.4,1.2,2.7,1.2c1,0,2.3-0.5,4-1.4v3.7c-0.8,0.4-1.6,0.7-2.3,0.9
		c-0.7,0.2-1.4,0.3-2,0.3c-4.6,0-6.9-2.7-6.9-8.1V0h3.7V35.4z"/>
	<path class="st0" d="M78.8,43.3h-3.1L64.3,13.7h4L77,36.8c0.1,0.2,0.1,0.4,0.2,0.5c0,0.2,0.1,0.4,0.2,0.5c0.1-0.2,0.1-0.3,0.2-0.5
		c0.1-0.2,0.1-0.3,0.2-0.5v0l8.9-23.2h4L78.8,43.3z"/>
	<path class="st0" d="M94.1,7.6c-0.7,0-1.3-0.2-1.9-0.8c-0.5-0.5-0.8-1.2-0.8-2c0-0.4,0.1-0.7,0.2-1.1C91.8,3.5,92,3.2,92.3,3
		c0.2-0.2,0.5-0.4,0.8-0.5c0.3-0.1,0.7-0.2,1-0.2c0.7,0,1.4,0.2,1.9,0.7c0.5,0.5,0.8,1.1,0.8,1.9c0,0.4-0.1,0.7-0.2,1.1
		S96.3,6.6,96,6.8c-0.2,0.2-0.5,0.4-0.9,0.6C94.8,7.6,94.5,7.6,94.1,7.6z M92.3,43.3V13.7H96v29.6H92.3z"/>
	<path class="st0" d="M102.5,43.3h-3.7V13.7h3.7v3.6c2.4-2.9,5.5-4.3,9.3-4.3c3.3,0,5.8,1.1,7.5,3.2c1.7,2.2,2.6,5.2,2.6,9.2v17.9
		h-3.7V26.2c0-3.2-0.6-5.6-1.7-7.2c-1.2-1.6-2.9-2.4-5.1-2.5c-2,0.2-3.7,0.8-5.3,1.6c-1.5,0.9-2.7,2.1-3.6,3.7V43.3z"/>
	<path class="st0" d="M150.6,40.7c0,2.8-0.3,5.1-0.9,7.2c-0.6,2-1.5,3.7-2.7,5c-2.4,2.6-6.2,3.9-11.3,3.9c-2.9,0-6-0.8-9.4-2.5
		l2.5-3c2,1.4,4.4,2.1,6.9,2.1c7.5,0,11.3-4,11.3-11.9v-1.9c-2.4,3-5.6,4.6-9.8,4.6c-3.7,0-6.7-1.3-9-4c-2.3-2.7-3.5-6.3-3.5-11
		c0-4.7,1.2-8.5,3.7-11.5c2.5-3,5.8-4.5,9.9-4.5c1.9,0,3.5,0.3,4.9,1c1.4,0.7,2.7,1.7,3.7,3v-3.3h3.7V40.7z M146.9,21.6
		c-2.6-3.5-5.4-5.2-8.6-5.2c-2.9,0-5.3,1.1-7.1,3.4c-1.9,2.3-2.8,5.3-2.8,9c0,3.7,0.8,6.7,2.5,8.7h0c1.7,2,3.9,3,6.5,3
		c4,0,7.2-1.9,9.5-5.7V21.6z"/>
	<path class="st0" d="M154.4,43.3V1.9h11.3c3.3,0,6,0.9,8,2.7c2,1.9,3.1,4.3,3.1,7.3c0,2.1-0.4,3.9-1.3,5.5
		c-0.9,1.6-2.2,2.9-3.9,3.8c1.8,0.5,3.3,1.4,4.5,2.7c1.8,1.9,2.6,4.3,2.6,7.1c0,3.6-1.2,6.5-3.5,8.8c-2.3,2.3-5.4,3.4-9.3,3.4H154.4
		z M158.8,6v13.7h4.7c2.7,0,4.8-0.7,6.4-2h0c1.6-1.3,2.3-3.1,2.3-5.4c0-4.2-2.5-6.3-7.6-6.3H158.8z M158.8,23.9v15.2h6.6
		c2.9,0,5.1-0.7,6.6-2c1.5-1.3,2.3-3.3,2.3-5.8c0-4.9-3.5-7.4-10.4-7.4H158.8z"/>
	<g id="XMLID_253_">
		<path id="XMLID_254_" class="st1" d="M241.1,13.1c-3.7-4.1-8.7-6.2-14.7-6.2c-0.9,0-1.7,0.8-1.7,1.7c0,0.9,0.8,1.7,1.7,1.7
			c5,0,9.1,1.7,12.1,5.1c0.3,0.4,0.8,0.6,1.3,0.6c0.4,0,0.8-0.1,1.1-0.4C241.7,14.9,241.7,13.8,241.1,13.1z"/>
		<path id="XMLID_262_" class="st1" d="M236.7,17c-1.3-1.4-2.8-2.5-4.5-3.2c-1.7-0.7-3.7-1.1-5.8-1.1c-1.1,0-2.1,0.1-3.1,0.3
			c-1,0.2-1.9,0.5-2.8,0.9c-0.9,0.4-1.7,0.8-2.5,1.4c-0.8,0.5-1.5,1.1-2.2,1.8c-0.6,0.7-1.2,1.5-1.7,2.4c-0.5,0.9-0.9,1.8-1.3,2.7
			c-0.2,0.5-0.3,0.9-0.4,1.4h-1.9h-1.6c-0.1-0.5-0.3-1-0.4-1.5c-0.6-1.9-1.6-3.6-2.8-5c-1.3-1.4-2.8-2.5-4.5-3.2
			c-1.7-0.7-3.7-1.1-5.8-1.1c-1.1,0-2.1,0.1-3.1,0.3c-1,0.2-1.9,0.5-2.8,0.9c-0.9,0.4-1.7,0.8-2.5,1.4c-0.8,0.5-1.5,1.1-2.2,1.8
			c-0.6,0.7-1.2,1.5-1.7,2.4c-0.5,0.9-0.9,1.8-1.3,2.7c-0.3,1-0.6,2-0.8,3.1c-0.2,1.1-0.3,2.3-0.3,3.5c0,2.3,0.3,4.4,1,6.2
			c0.6,1.9,1.6,3.5,2.9,5c0.7,0.7,1.4,1.4,2.1,1.9c0.8,0.6,1.6,1,2.5,1.4c0.9,0.4,1.8,0.6,2.8,0.8c1,0.2,2,0.3,3.1,0.3
			c1.1,0,2.1-0.1,3.1-0.3c1-0.2,1.9-0.5,2.8-0.9c0.9-0.4,1.7-0.9,2.5-1.4c0.8-0.6,1.5-1.2,2.1-1.9c0.6-0.7,1.2-1.5,1.6-2.3
			c0.5-0.8,0.9-1.7,1.2-2.7c0.3-0.9,0.6-1.9,0.7-3c0.1-0.3,0.1-0.7,0.1-1.1h1.2h1.4c0.1,1.5,0.4,2.8,0.9,4.1c0.6,1.9,1.6,3.5,2.9,5
			c0.7,0.7,1.4,1.4,2.1,1.9c0.8,0.6,1.6,1,2.5,1.4c0.9,0.4,1.8,0.6,2.8,0.8c1,0.2,2,0.3,3.1,0.3c1.1,0,2.1-0.1,3.1-0.3
			c1-0.2,1.9-0.5,2.8-0.9c0.9-0.4,1.7-0.9,2.5-1.4c0.8-0.6,1.5-1.2,2.1-1.9c0.6-0.7,1.2-1.5,1.6-2.3c0.5-0.8,0.9-1.7,1.2-2.7
			c0.3-0.9,0.6-1.9,0.7-3c0.2-1.1,0.2-2.2,0.2-3.3c0-2.4-0.3-4.6-0.9-6.5C238.9,20.1,238,18.4,236.7,17z M226.2,39.8
			c-1.4,0-2.8-0.2-3.9-0.7c-1.2-0.5-2.2-1.2-3.1-2.2l-0.1-0.1l-0.1-0.1c-0.8-1-1.4-2.1-1.8-3.4c-0.4-1.3-0.6-2.8-0.6-4.4
			c0-0.9,0.1-1.8,0.2-2.6c0.1-0.8,0.3-1.6,0.5-2.3c0.2-0.7,0.5-1.3,0.8-1.9c0.3-0.6,0.7-1.1,1.2-1.6c0.9-1,1.9-1.7,3.1-2.2
			c1.2-0.5,2.5-0.7,4-0.7c1.5,0,2.8,0.2,3.9,0.7c1.1,0.5,2.1,1.2,2.9,2.1c0.8,1,1.4,2.1,1.8,3.5s0.6,3,0.6,4.9
			c0,0.9-0.1,1.7-0.2,2.5c-0.1,0.8-0.3,1.6-0.5,2.3c-0.2,0.7-0.5,1.3-0.8,1.9c-0.3,0.6-0.6,1.1-1,1.6c-0.4,0.5-0.9,0.9-1.3,1.2
			c-0.5,0.4-1,0.7-1.6,0.9c-0.6,0.2-1.2,0.4-1.9,0.6C227.7,39.7,227,39.8,226.2,39.8z M195.2,39.8c-1.4,0-2.7-0.2-3.9-0.7
			c-1.2-0.5-2.2-1.2-3.1-2.2l-0.1-0.1l-0.1-0.1c-0.8-1-1.4-2.1-1.8-3.4c-0.4-1.3-0.6-2.8-0.6-4.4c0-0.9,0.1-1.8,0.2-2.6
			c0.1-0.8,0.3-1.6,0.5-2.3c0.2-0.7,0.5-1.3,0.8-1.9c0.3-0.6,0.7-1.1,1.2-1.6c0.9-1,1.9-1.7,3.1-2.2c1.2-0.5,2.5-0.7,4-0.7
			c1.5,0,2.8,0.2,3.9,0.7c1.1,0.5,2.1,1.2,2.9,2.1c0.8,1,1.4,2.1,1.8,3.5s0.6,3,0.6,4.9c0,0.9-0.1,1.7-0.2,2.5
			c-0.1,0.8-0.3,1.6-0.5,2.3c-0.2,0.7-0.5,1.3-0.8,1.9c-0.3,0.6-0.6,1.1-1,1.6c-0.4,0.5-0.9,0.9-1.3,1.2c-0.5,0.4-1,0.7-1.6,0.9
			c-0.6,0.2-1.2,0.4-1.9,0.6C196.7,39.7,196,39.8,195.2,39.8z"/>
	</g>
	<path class="st0" d="M260,43.3l-12.3-12.7v12.7h-4.2V0.3h4.2v25.6c0.5-0.5,1-1.1,1.6-1.7c0.5-0.6,1.1-1.1,1.6-1.7
		c1.4-1.5,2.8-2.9,4.3-4.4c1.4-1.5,2.8-2.9,4.2-4.4h5.5l-14.1,14.4c1.2,1.2,2.4,2.4,3.7,3.7c1.3,1.3,2.6,2.6,3.9,4
		c1.3,1.3,2.6,2.6,3.9,3.9c1.3,1.3,2.5,2.5,3.6,3.6H260z"/>
	<path class="st0" d="M267.4,36.9c1.4,1.3,2.8,2.1,4,2.5c0.6,0.2,1.2,0.3,1.7,0.4c0.5,0.1,1,0.2,1.5,0.2c3.8,0,5.8-1.5,5.8-4.6
		c0-0.5-0.1-1-0.3-1.4c-0.2-0.4-0.5-0.9-1-1.3c-0.5-0.4-1-0.8-1.7-1.2c-0.7-0.4-1.6-0.8-2.6-1.2c-1.4-0.6-2.7-1.2-3.6-1.9
		c-1-0.6-1.8-1.3-2.3-1.9c-1.2-1.4-1.8-3.1-1.8-5.1c0-2.5,1-4.6,2.9-6.2c1.9-1.5,4.2-2.3,7-2.3c2.5,0,5.3,0.9,8.2,2.6l-1.6,3.7
		c-1.2-0.8-2.4-1.4-3.6-1.8c-1.1-0.4-2.2-0.6-3.3-0.6c-1.6,0-2.9,0.4-3.9,1.2h0c-0.9,0.8-1.4,1.9-1.4,3.1c0,0.5,0.1,1,0.2,1.5
		c0.2,0.5,0.4,0.9,0.7,1.2c0.4,0.3,0.9,0.8,1.7,1.2c0.8,0.5,1.7,0.9,2.7,1.4c3,1.3,5,2.6,6.2,3.8c1.3,1.3,1.9,2.9,1.9,5
		c0,2.5-0.9,4.5-2.8,6.2c-1.8,1.6-4.3,2.4-7.4,2.4c-1.5,0-2.9-0.3-4.4-0.8c-1.5-0.6-3-1.4-4.5-2.5L267.4,36.9z"/>
</g>
</svg>
