<?xml version="1.0" encoding="utf-8"?>
<!-- Generator: Adobe Illustrator 19.0.0, SVG Export Plug-In . SVG Version: 6.00 Build 0)  -->
<svg version="1.1" id="Capa_1" xmlns="http://www.w3.org/2000/svg" xmlns:xlink="http://www.w3.org/1999/xlink" x="0px" y="0px"
	 viewBox="0 0 170.6 165.5" style="enable-background:new 0 0 170.6 165.5;" xml:space="preserve">
<style type="text/css">
	.st0{opacity:0.2;}
	.st1{clip-path:url(#SVGID_2_);}
	.st2{fill:#232323;}
	.st3{opacity:0.1;clip-path:url(#SVGID_2_);}
	.st4{clip-path:url(#SVGID_4_);}
	.st5{fill:#27B193;}
	.st6{opacity:0.1;clip-path:url(#SVGID_4_);}
	.st7{fill:#D3D5D5;}
	.st8{fill:#043D32;}
</style>
<g id="XMLID_839_">
	<g id="XMLID_1567_" class="st0">
		<defs>
			<path id="SVGID_1_" class="st0" d="M170.6,156.5c0,5-4,9-9,9H20.5c-5,0-9-4-9-9V20.5c0-5,4-9,9-9h141.1c5,0,9,4,9,9"/>
		</defs>
		<use xlink:href="#SVGID_1_"  style="overflow:visible;fill:#232323;"/>
		<clipPath id="SVGID_2_">
			<use xlink:href="#SVGID_1_"  style="overflow:visible;"/>
		</clipPath>
		<g id="XMLID_1570_" class="st1">
			<polyline class="st2" points="-7.7,125.5 195,125.5 195,-7.7 -22.5,-7.7 -22.5,131.3 -3.4,128.2 			"/>
		</g>
		<g id="XMLID_1569_" class="st3">
			<rect id="XMLID_986_" x="89.9" y="-1.3" class="st2" width="86.9" height="177.6"/>
		</g>
	</g>
	<g id="XMLID_1559_">
		<defs>
			<path id="SVGID_3_" d="M159.2,145.1c0,5-4,9-9,9H9c-5,0-9-4-9-9V9c0-5,4-9,9-9h141.1c5,0,9,4,9,9V145.1z"/>
		</defs>
		<use xlink:href="#SVGID_3_"  style="overflow:visible;fill:#FFFFFF;"/>
		<clipPath id="SVGID_4_">
			<use xlink:href="#SVGID_3_"  style="overflow:visible;"/>
		</clipPath>
		<g id="XMLID_1566_" class="st4">
			<polyline class="st5" points="-19.1,114.1 183.6,114.1 183.6,-19.1 -34,-19.1 -34,119.9 -14.9,116.7 			"/>
		</g>
		<g id="XMLID_1562_" class="st6">
			<rect id="XMLID_985_" x="78.5" y="-12.7" width="86.9" height="177.6"/>
		</g>
	</g>
	<g id="XMLID_1558_" class="st0">
		<circle id="XMLID_945_" class="st7" cx="79.6" cy="60.5" r="43.1"/>
	</g>
	<g id="XMLID_922_">
		<g id="XMLID_923_">
			<path d="M49.8,131.9V131c0-0.7-0.6-1.3-1.3-1.3s-1.4,0.6-1.4,1.3v7c0,0.7,0.6,1.4,1.4,1.4s1.3-0.6,1.3-1.4v-1
				c0-0.2,0.2-0.4,0.4-0.4h0.8c0.2,0,0.4,0.2,0.4,0.4v1c0,1.7-1.4,3-3,3c-1.7,0-3-1.4-3-3v-7c0-1.7,1.4-3,3-3c1.7,0,3,1.4,3,3v0.9
				c0,0.2-0.2,0.4-0.4,0.4h-0.8C50,132.3,49.8,132.1,49.8,131.9z"/>
		</g>
		<g id="XMLID_925_">
			<path d="M55.1,140.6c0,0.2-0.2,0.4-0.4,0.4h-0.8c-0.2,0-0.4-0.2-0.4-0.4v-12.3c0-0.2,0.2-0.4,0.4-0.4h0.8c0.2,0,0.4,0.2,0.4,0.4
				V140.6z"/>
		</g>
		<g id="XMLID_927_">
			<path d="M63.3,132.3c0,0.9-0.3,1.7-0.9,2.2c0.6,0.6,0.9,1.3,0.9,2.2v3.9c0,0.2-0.2,0.4-0.4,0.4H62c-0.2,0-0.4-0.2-0.4-0.4v-3.9
				c0-0.7-0.6-1.4-1.4-1.4h-1.3v5.3c0,0.2-0.2,0.4-0.4,0.4h-0.8c-0.2,0-0.4-0.2-0.4-0.4v-11.8c0-0.5,0.4-0.8,0.8-0.8h2.2
				c1.7,0,3,1.4,3,3V132.3z M61.6,131c0-0.7-0.6-1.3-1.4-1.3h-1.3v4h1.3c0.7,0,1.4-0.6,1.4-1.4V131z"/>
		</g>
		<g id="XMLID_930_">
			<path d="M69.9,131.9V131c0-0.7-0.6-1.3-1.3-1.3s-1.4,0.6-1.4,1.3v7c0,0.7,0.6,1.4,1.4,1.4s1.3-0.6,1.3-1.4v-1
				c0-0.2,0.2-0.4,0.4-0.4h0.8c0.2,0,0.4,0.2,0.4,0.4v1c0,1.7-1.4,3-3,3c-1.7,0-3-1.4-3-3v-7c0-1.7,1.4-3,3-3c1.7,0,3,1.4,3,3v0.9
				c0,0.2-0.2,0.4-0.4,0.4h-0.8C70.1,132.3,69.9,132.1,69.9,131.9z"/>
		</g>
		<g id="XMLID_932_">
			<path d="M79.6,128.4v9.6c0,1.7-1.4,3.1-3,3.1c-1.7,0-3.1-1.4-3.1-3.1v-9.6c0-0.2,0.2-0.4,0.4-0.4h0.8c0.2,0,0.4,0.2,0.4,0.4v9.6
				c0,0.8,0.6,1.4,1.4,1.4c0.7,0,1.3-0.6,1.3-1.4v-9.6c0-0.2,0.2-0.4,0.4-0.4h0.8C79.4,128,79.6,128.1,79.6,128.4z"/>
		</g>
		<g id="XMLID_934_">
			<path d="M83.5,140.6c0,0.2-0.2,0.4-0.4,0.4h-0.8c-0.2,0-0.4-0.2-0.4-0.4v-12.3c0-0.2,0.2-0.4,0.4-0.4h0.8c0.2,0,0.4,0.2,0.4,0.4
				V140.6z"/>
		</g>
		<g id="XMLID_936_">
			<path d="M90.4,128.4v0.8c0,0.2-0.2,0.4-0.4,0.4h-1.2v11c0,0.2-0.2,0.4-0.4,0.4h-0.8c-0.2,0-0.4-0.2-0.4-0.4v-11h-1.2
				c-0.2,0-0.4-0.2-0.4-0.4v-0.8c0-0.2,0.2-0.4,0.4-0.4h4.1C90.2,128,90.4,128.1,90.4,128.4z"/>
		</g>
		<g id="XMLID_938_">
			<path d="M97.6,131v7c0,1.7-1.4,3.1-3,3.1c-1.7,0-3.1-1.4-3.1-3.1v-7c0-1.7,1.4-3,3.1-3C96.2,128,97.6,129.3,97.6,131z M95.9,131
				c0-0.7-0.6-1.3-1.3-1.3c-0.8,0-1.4,0.6-1.4,1.3v7c0,0.8,0.6,1.4,1.4,1.4c0.7,0,1.3-0.6,1.3-1.4V131z"/>
		</g>
		<g id="XMLID_941_">
			<path d="M104,131.9V131c0-0.7-0.6-1.3-1.3-1.3s-1.4,0.6-1.4,1.3c0,0.3,0,0.3,0.1,0.5l3.7,4.9c0.6,0.8,0.6,0.8,0.6,1.7
				c0,1.7-1.4,3-3,3s-3-1.4-3-3v-0.9c0-0.2,0.2-0.4,0.4-0.4h0.8c0.2,0,0.4,0.2,0.4,0.4v0.9c0,0.7,0.6,1.4,1.4,1.4s1.3-0.6,1.3-1.4
				c0-0.3,0-0.3-0.1-0.4l-3.7-4.9c-0.6-0.8-0.6-0.8-0.6-1.7c0-1.7,1.4-3,3-3s3,1.4,3,3v0.9c0,0.2-0.2,0.4-0.4,0.4h-0.8
				C104.1,132.3,104,132.1,104,131.9z"/>
		</g>
		<g id="XMLID_943_">
			<path d="M113.1,140.6c0,0.2-0.2,0.4-0.4,0.4h-0.8c-0.2,0-0.4-0.2-0.4-0.4v-12.3c0-0.2,0.2-0.4,0.4-0.4h0.8c0.2,0,0.4,0.2,0.4,0.4
				V140.6z"/>
		</g>
	</g>
	<path id="XMLID_990_" class="st8" d="M113,53.9c0-2.9-2.1-5.3-4.8-5.8v-5.3h-7.1v-2h-8.3v2H50.9v5.4c-2.6,0.6-4.5,2.9-4.5,5.7
		c0,2.8,1.9,5.1,4.5,5.7v17.6l18.7,0c0.5,2.7,2.9,4.8,5.8,4.8c2.9,0,5.3-2.1,5.8-4.8l11.5,0v1.5h8.3v-1.5l7.1,0V59.7
		C111,59.2,113,56.8,113,53.9z M95.1,43.1h3.5V44h-3.5V43.1z M101.1,46.4v-1.3h4.7v3c-2.6,0.6-4.6,2.9-4.6,5.7c0,2.8,2,5.1,4.6,5.7
		v4.1h-4.7v-1.6h-8.3v1.6h-5.4v-5.1h1.7v-9.7h-1.7v-3.7h5.4v1.3H101.1z M98.7,64.5v0.9h-3.5v-0.9H98.7z M71,62.1v1.6h-2.8v-5.1h1.8
		v-9.7h-1.8v-3.7H85v3.7h-1.9v9.7H85v5.1h-5.7v-1.6H71z M77,64.5v0.9h-3.6v-0.9H77z M67.7,51.2v5h-1.2v-5H67.7z M85.5,56.1v-5h1.2v5
		H85.5z M65.9,45.1v3.7H64v9.7h1.8v5.1H53.3v-4c2.8-0.5,4.9-2.9,4.9-5.8c0-2.9-2.1-5.3-4.9-5.8v-3H65.9z M48.8,53.9
		c0-1.9,1.6-3.5,3.5-3.5s3.5,1.6,3.5,3.5s-1.6,3.5-3.5,3.5S48.8,55.8,48.8,53.9z M75.4,79.5c-1.9,0-3.5-1.6-3.5-3.5s1.6-3.5,3.5-3.5
		s3.5,1.6,3.5,3.5S77.4,79.5,75.4,79.5z M98.7,76.2h-3.5v-0.9h3.5V76.2z M101.1,74.7v-1.8h-8.3v1.8l-11.6,0
		c-0.6-2.6-2.9-4.6-5.7-4.6c-2.8,0-5.1,2-5.7,4.6l-16.4,0v-8.7H71v1.7h8.3v-1.7h13.4v1.7h8.3v-1.7h4.7v8.6L101.1,74.7z M107.2,57.4
		c-1.9,0-3.5-1.6-3.5-3.5s1.6-3.5,3.5-3.5s3.5,1.6,3.5,3.5S109.1,57.4,107.2,57.4z"/>
</g>
</svg>
