<?xml version="1.0" encoding="utf-8"?>
<!-- Generator: Adobe Illustrator 19.0.0, SVG Export Plug-In . SVG Version: 6.00 Build 0)  -->
<svg version="1.1" id="Capa_1" xmlns="http://www.w3.org/2000/svg" xmlns:xlink="http://www.w3.org/1999/xlink" x="0px" y="0px"
	 viewBox="0 0 25.4 25.4" style="enable-background:new 0 0 25.4 25.4;" xml:space="preserve">
<style type="text/css">
	.st0{fill:#052B28;}
</style>
<g id="XMLID_352_">
	<g id="XMLID_559_">
		<path id="XMLID_562_" class="st0" d="M10.4,0C11,0.1,11.5,0.2,12,0.3c2,0.6,3.6,1.7,4.9,3.3c0.9,1.1,1.5,2.4,1.8,3.9
			c0.3,1.2,0.3,2.4,0.1,3.5c-0.3,2-1.2,3.8-2.7,5.2c-1.5,1.5-3.3,2.4-5.3,2.7c-2.4,0.4-4.7-0.1-6.7-1.5c-1.7-1.1-2.9-2.7-3.6-4.6
			c-0.3-0.8-0.5-1.6-0.6-2.4c0-0.6,0-1.2,0-1.8c0.1-0.4,0.1-0.7,0.2-1.1C0.5,6.1,1.1,4.8,2,3.6C3.3,2,5,0.9,7,0.3
			C7.5,0.2,8.1,0.1,8.6,0C9.2,0,9.8,0,10.4,0z M9.5,2.4C5.6,2.5,2.4,5.5,2.4,9.5c0,3.9,3,7.1,7.1,7.1c3.8,0,7.1-3,7.1-7.1
			C16.6,5.6,13.6,2.5,9.5,2.4z"/>
		<path id="XMLID_561_" class="st0" d="M22.5,25.4c-0.7-0.2-1.2-0.6-1.6-1c-1.7-1.8-3.5-3.5-5.3-5.3c-0.2-0.2-0.2-0.2,0-0.4
			c1.2-0.8,2.2-1.8,3-3c0.2-0.3,0.2-0.3,0.4,0c1.8,1.8,3.5,3.5,5.3,5.3c0.5,0.5,0.9,1,1,1.6c0,0.3,0,0.6,0,0.9
			c-0.1,0.4-0.2,0.7-0.5,1c-0.4,0.5-0.9,0.8-1.5,0.9C23.1,25.4,22.8,25.4,22.5,25.4z"/>
		<path id="XMLID_560_" class="st0" d="M9.5,4.8c0,0.2,0,0.3,0,0.5c0,0.2-0.1,0.3-0.3,0.3C7.5,5.8,6.4,6.7,5.8,8.2
			c-0.1,0.3-0.2,0.7-0.2,1c0,0.2-0.1,0.3-0.3,0.3c-0.4,0-0.7,0-1.1,0C4,9.5,3.9,9.5,3.9,9.3C4,7.8,4.6,6.6,5.6,5.6
			c1-1,2.2-1.6,3.7-1.6c0.3,0,0.3,0,0.3,0.3C9.5,4.4,9.5,4.6,9.5,4.8z"/>
	</g>
</g>
</svg>
