<?xml version="1.0" encoding="utf-8"?>
<!-- Generator: Adobe Illustrator 19.0.0, SVG Export Plug-In . SVG Version: 6.00 Build 0)  -->
<svg version="1.1" id="Capa_1" xmlns="http://www.w3.org/2000/svg" xmlns:xlink="http://www.w3.org/1999/xlink" x="0px" y="0px"
	 viewBox="0 0 104.9 96.9" style="enable-background:new 0 0 104.9 96.9;" xml:space="preserve">
<style type="text/css">
	.st0{fill:#043D32;}
</style>
<g id="XMLID_1474_">
	<path id="XMLID_1478_" class="st0" d="M52.4,96.9c-7,0-13.9,0-20.9,0c-4.4,0-6.5-2.1-6.5-6.6c0-2.9,0-5.7,0-8.6
		c0-1-0.3-1.3-1.3-1.3c-2.8,0-5.6,0-8.3,0c-0.9,0-1.2-0.3-1.2-1.2c0-2.5-0.1-2.5-2.5-2.6c-3.3-0.2-6.6-0.3-9.8-0.5
		C0.1,76.1,0,76,0,74.5c0-1.5,0-3,0-4.5c0-0.8,0.3-1.2,1.1-1.2c3.9-0.2,7.8-0.4,11.7-0.6c0.9,0,1.2-0.4,1.2-1.3c0-1.6,0-1.6,1.6-1.6
		c2.6,0,5.2,0,7.9,0c1,0,1.4-0.2,1.4-1.3c-0.1-2.1,0-4.2,0-6.3c0-0.9-0.3-1.2-1.2-1.2c-2.7,0-5.5,0-8.2,0c-1.1,0-1.5-0.3-1.5-1.5
		c0.1-2.2,0-2.3-2.2-2.4c-3-0.2-6.1-0.3-9.1-0.4c-0.2,0-0.5,0-0.7,0c-2-0.1-2-0.1-2-2.1c0-1.3,0-2.7,0-4c0-0.8,0.2-1.3,1.2-1.3
		c2.5-0.1,5-0.2,7.5-0.4c1.4-0.1,2.8-0.2,4.2-0.2c0.9,0,1.2-0.3,1.2-1.2c0-1.7,0-1.7,1.8-1.7c2.6,0,5.2,0,7.9,0
		c0.9,0,1.3-0.3,1.2-1.2c-0.1-1.8,0-3.7,0-5.5c0-0.9-0.3-1.2-1.2-1.2c-2.8,0-5.6,0-8.3,0c-1,0-1.4-0.3-1.4-1.4c0-2.6,0-2.5-2.6-2.6
		C8,29.3,4.5,29.1,1.1,29C0.3,29,0,28.6,0,27.9c0-1.7,0-3.4,0-5.1c0-0.8,0.4-1.2,1.2-1.2c3.8-0.1,7.7-0.4,11.5-0.5
		c1,0,1.4-0.3,1.4-1.3c-0.1-1.7,0-1.7,1.8-1.7c2.5,0,5,0,7.5,0c1.5,0,1.5,0,1.5-1.6c0-3.4,0-6.7,0-10.1c0-4.2,2.2-6.4,6.4-6.4
		c14.1,0,28.2,0,42.3,0c4.1,0,6.3,2.2,6.4,6.3c0,3.5,0,7,0,10.5c0,1,0.3,1.4,1.4,1.4c2.7-0.1,5.4,0,8.1,0c1,0,1.5,0.3,1.4,1.4
		c-0.1,1.6,0,1.6,1.6,1.6c3.8,0.1,7.5,0.3,11.3,0.5c0.9,0,1.2,0.4,1.2,1.2c0,1.7,0,3.4,0,5.1c0,0.8-0.3,1.1-1.1,1.1
		c-3.8,0.1-7.5,0.3-11.3,0.5c-1.6,0.1-1.6,0.1-1.7,1.7c0,2.3,0.3,2.3-2.3,2.3c-2.4,0-4.9,0-7.3,0c-1,0-1.3,0.3-1.3,1.3
		c0.1,1.8,0.1,3.6,0,5.4c0,0.9,0.3,1.2,1.2,1.2c2.7,0,5.5,0,8.2,0c1.1,0,1.6,0.3,1.4,1.4c-0.2,1.2,0.4,1.5,1.5,1.5
		c3.7,0.1,7.4,0.4,11.1,0.5c1.1,0,1.5,0.6,1.4,1.6c-0.1,1.4-0.1,2.8,0,4.2c0.1,1.1-0.4,1.5-1.5,1.6c-2.7,0.1-5.3,0.2-8,0.3
		c-1.3,0.1-2.5,0.2-3.7,0.2c-0.7,0-0.8,0.3-0.9,1c-0.2,2.8-0.2,2.8-3,2.8c-2.2,0-4.5,0-6.7,0c-0.8,0-1.2,0.2-1.2,1.1
		c0,2.2,0,4.5,0,6.7c0,0.8,0.4,1.1,1.1,1.1c2.8,0,5.6,0,8.5,0c1,0,1.4,0.3,1.3,1.3c-0.2,1.2,0.3,1.6,1.5,1.7
		c3.8,0.1,7.5,0.4,11.3,0.5c1,0,1.3,0.4,1.3,1.4c0,1.5-0.1,3.1,0,4.6c0,1.1-0.4,1.4-1.4,1.5c-3.8,0.1-7.5,0.4-11.3,0.5
		c-1.1,0-1.4,0.4-1.4,1.5c0,2.6,0.3,2.4-2.4,2.4c-2.4,0-4.9,0-7.3,0c-0.9,0-1.2,0.3-1.2,1.2c0,2.9,0,5.9,0,8.8
		c0,4.3-2.2,6.4-6.4,6.5C66.5,96.9,59.4,96.9,52.4,96.9z M28,48.3c0,13.9,0,27.9,0,41.8c0,0.5,0,1,0,1.5c0.1,1.2,0.9,1.9,2.1,2.1
		c0.3,0,0.6,0,0.9,0c14.3,0,28.5,0,42.8,0c0.3,0,0.5,0,0.8,0c1.2-0.1,2-0.9,2.1-2.1c0-0.5,0-0.9,0-1.4c0-27.8,0-55.7,0-83.5
		c0-0.5,0-0.9,0-1.4c-0.1-1.2-0.9-2-2.1-2.1c-0.3,0-0.7,0-1.1,0c-14.1,0-28.2,0-42.3,0c-0.4,0-0.8,0-1.2,0c-1.2,0.1-1.9,0.9-2.1,2
		c-0.1,0.5,0,1,0,1.5C28,20.6,28,34.5,28,48.3z M24.5,48.9c0-1.1,0-2.3,0-3.4c0-0.9-0.3-1.2-1.2-1.2c-1.5,0.1-3.1,0-4.6,0
		c-1.6,0-1.6,0-1.6,1.6c0,0.9-0.3,1.2-1.2,1.2c-3.6,0.1-7.3,0.3-10.9,0.5c-0.6,0-1.7-0.3-1.7,0.9c0,1.1,1.1,0.8,1.7,0.8
		c3.1,0.2,6.2,0.3,9.4,0.5c0.8,0.1,1.9-0.3,2.5,0.3c0.6,0.6,0.2,1.7,0.2,2.5c0,0.7,0.3,1,1,1c1.8,0,3.6,0,5.4,0
		c0.8,0,1.1-0.4,1.1-1.1C24.4,51.2,24.5,50.1,24.5,48.9z M80.4,48.9L80.4,48.9c0,1.1,0,2.1,0,3.2c-0.1,1,0.2,1.5,1.4,1.4
		c1.2-0.1,2.5,0,3.8,0c2.7,0,2.3,0.3,2.3-2.3c0-1.2,0.4-1.4,1.5-1.5c3.7-0.1,7.3-0.3,11-0.5c0.5,0,1.3,0.1,1.4-0.8
		c0.1-1-0.8-0.7-1.3-0.9c-0.1,0-0.2,0-0.4,0c-3.4-0.2-6.9-0.3-10.3-0.5c-1.8-0.1-1.8-0.1-1.8-1.8c0-0.7-0.2-1.1-1-1.1
		c-1.8,0-3.6,0-5.4,0c-0.7,0-1.1,0.3-1.1,1C80.4,46.5,80.4,47.7,80.4,48.9z M24.5,73c0-1.2,0-2.4,0-3.6c0-0.8-0.3-1.1-1.1-1.1
		c-1.5,0-3.1,0-4.6,0c-1.7,0-1.8-0.2-1.8,1.7c0,0.8-0.2,1.1-1.1,1.1c-1.6,0-3.3,0.1-4.9,0.2c-2.2,0.1-4.5,0.2-6.7,0.4
		c-0.5,0-1.2-0.1-1.2,0.7c0,0.9,0.7,0.8,1.3,0.8c3.3,0.2,6.6,0.3,9.8,0.5c2.6,0.1,2.6,0.1,2.7,2.8c0,0.7,0.2,1,1,1
		c1.8,0,3.7,0,5.5,0c0.7,0,1-0.3,1-1C24.4,75.4,24.5,74.2,24.5,73z M80.4,72.9c0,1.1,0,2.3,0,3.4c-0.1,1,0.4,1.3,1.3,1.3
		c1.2-0.1,2.4,0,3.6,0c2.4,0,2.5,0,2.5-2.5c0-0.9,0.3-1.2,1.2-1.3c3.8-0.1,7.6-0.3,11.4-0.5c0.6,0,1.3,0.1,1.3-0.8
		c0-0.9-0.7-0.7-1.2-0.8c-3.7-0.2-7.3-0.4-11-0.6c-1.7-0.1-1.7-0.1-1.7-1.8c0-0.8-0.3-1-1-1c-1.8,0-3.5,0-5.3,0
		c-0.9,0-1.2,0.4-1.1,1.2C80.4,70.6,80.4,71.7,80.4,72.9z M24.5,25.7c0-1.1,0-2.1,0-3.2c0.1-1-0.3-1.4-1.3-1.4
		c-1.6,0.1-3.2,0.1-4.8,0c-1.1,0-1.5,0.4-1.3,1.4c0.2,1.1-0.4,1.5-1.5,1.5c-3.8,0.1-7.6,0.3-11.4,0.5c-0.5,0-1.1,0-1.1,0.7
		c0,0.7,0.5,0.8,1,0.8c3.4,0.2,6.7,0.3,10.1,0.5c2.7,0.1,2.7,0.1,2.8,2.7c0,0.7,0.2,1.1,1,1.1c1.8,0,3.6,0,5.4,0
		c0.8,0,1.1-0.3,1-1.1C24.4,28.1,24.5,26.9,24.5,25.7z M84.1,30.3L84.1,30.3c0.7,0,1.3,0,2,0c1.7,0,1.7,0,1.7-1.7c0-1.9,0-1.9,1.9-2
		c3.6-0.2,7.3-0.3,10.9-0.5c0.5,0,1,0,1.1-0.8c0-0.8-0.5-0.8-1-0.8c-3.7-0.2-7.4-0.3-11.1-0.5c-1.7-0.1-1.7-0.1-1.7-1.7
		c0-0.8-0.2-1.2-1.1-1.1c-1.8,0-3.6,0-5.4,0c-0.7,0-1,0.3-1,1c0,2.4,0,4.8,0,7.2c0,0.7,0.3,1,1,1C82.3,30.3,83.2,30.3,84.1,30.3z"/>
	<path id="XMLID_1475_" class="st0" d="M34.8,7c2,0,3.5,1.6,3.5,3.5c0,1.9-1.6,3.5-3.5,3.5c-2,0-3.6-1.6-3.6-3.5
		C31.2,8.5,32.8,7,34.8,7z"/>
</g>
</svg>
