<?xml version="1.0" encoding="utf-8"?>
<!-- Generator: Adobe Illustrator 19.0.0, SVG Export Plug-In . SVG Version: 6.00 Build 0)  -->
<svg version="1.1" id="Capa_1" xmlns="http://www.w3.org/2000/svg" xmlns:xlink="http://www.w3.org/1999/xlink" x="0px" y="0px"
	 viewBox="0 0 311.4 108.8" style="enable-background:new 0 0 311.4 108.8;" xml:space="preserve">
<style type="text/css">
	.st0{fill:#108B80;}
</style>
<g id="XMLID_352_">
	<g id="XMLID_496_">
		<path id="XMLID_497_" d="M1.7,11.1H1.5c-0.3,0-0.6,0.3-0.6,0.7v35.1c0,0.3,0.3,0.6,0.6,0.6h0.1c0.4,0,0.7-0.3,0.7-0.6V11.8
			C2.4,11.4,2.1,11.1,1.7,11.1z"/>
		<path id="XMLID_498_" d="M18.3,11.1c-3.7,0-6.8,3-6.8,6.8v29c0,0.3,0.3,0.6,0.6,0.6h0.2c0.3,0,0.6-0.3,0.6-0.6v-29
			c0-2.9,2.4-5.3,5.3-5.3c2.9,0,5.2,2.4,5.2,5.3v29c0,0.3,0.3,0.6,0.7,0.6h0.1c0.3,0,0.6-0.3,0.6-0.6v-29C25,14.2,22,11.1,18.3,11.1
			z"/>
		<path id="XMLID_499_" d="M41,11.1c-3.7,0-6.7,3-6.7,6.8v22.9c0,3.7,3,6.8,6.7,6.8c3.7,0,6.8-3,6.8-6.8V29.1c0-0.3-0.3-0.6-0.7-0.6
			h-3.8c-0.3,0-0.6,0.3-0.6,0.6v0.2c0,0.3,0.3,0.6,0.6,0.6h3.1v10.8c0,2.9-2.4,5.3-5.3,5.3s-5.3-2.4-5.3-5.3V17.9
			c0-2.9,2.4-5.3,5.3-5.3s5.3,2.4,5.3,5.3v1.4c0,0.3,0.3,0.6,0.6,0.6H47c0.4,0,0.7-0.3,0.7-0.6v-1.4C47.7,14.2,44.7,11.1,41,11.1z"
			/>
		<path id="XMLID_500_" d="M65.1,11.1h-7.5c-0.4,0-0.7,0.3-0.7,0.8v34.9c0,0.4,0.3,0.8,0.7,0.8h7.5c0.3,0,0.6-0.3,0.6-0.6v-0.2
			c0-0.3-0.3-0.6-0.6-0.6h-6.8V30h6.8c0.3,0,0.6-0.3,0.6-0.6v-0.1c0-0.4-0.3-0.7-0.6-0.7h-6.8v-16h6.8c0.3,0,0.6-0.3,0.6-0.6v-0.1
			C65.7,11.4,65.5,11.1,65.1,11.1z"/>
		<path id="XMLID_501_" d="M81.8,11.1c-3.7,0-6.8,3-6.8,6.8v29c0,0.3,0.3,0.6,0.6,0.6h0.2c0.3,0,0.6-0.3,0.6-0.6v-29
			c0-2.9,2.4-5.3,5.3-5.3c2.9,0,5.2,2.4,5.2,5.3v29c0,0.3,0.3,0.6,0.7,0.6h0.1c0.3,0,0.6-0.3,0.6-0.6v-29
			C88.4,14.2,85.4,11.1,81.8,11.1z"/>
		<path id="XMLID_502_" d="M98.5,11.1h-0.1c-0.3,0-0.6,0.3-0.6,0.7v35.1c0,0.3,0.3,0.6,0.6,0.6h0.1c0.4,0,0.7-0.3,0.7-0.6V11.8
			C99.1,11.4,98.9,11.1,98.5,11.1z"/>
		<path id="XMLID_503_" d="M116.5,11.1H109c-0.4,0-0.7,0.3-0.7,0.8v34.9c0,0.4,0.3,0.8,0.7,0.8h7.5c0.3,0,0.6-0.3,0.6-0.6v-0.2
			c0-0.3-0.3-0.6-0.6-0.6h-6.8V30h6.8c0.3,0,0.6-0.3,0.6-0.6v-0.1c0-0.4-0.3-0.7-0.6-0.7h-6.8v-16h6.8c0.3,0,0.6-0.3,0.6-0.6v-0.1
			C117.2,11.4,116.9,11.1,116.5,11.1z"/>
		<path id="XMLID_506_" d="M132.8,11.1h-6c-0.4,0-0.8,0.4-0.8,0.8v35c0,0.3,0.3,0.6,0.7,0.6h0.1c0.3,0,0.6-0.3,0.6-0.6V30h5.3
			c2.9,0,5.3,2.4,5.3,5.3v11.6c0,0.3,0.3,0.6,0.6,0.6h0.1c0.4,0,0.7-0.3,0.7-0.6V35.3c0-2.6-1.5-4.9-3.8-6c2.3-1.2,3.8-3.5,3.8-6.1
			v-5.4C139.6,14.2,136.5,11.1,132.8,11.1z M138.1,17.9v5.4c0,2.9-2.4,5.3-5.3,5.3h-5.3v-16h5.3C135.7,12.6,138.1,15,138.1,17.9z"/>
		<path id="XMLID_507_" d="M149.1,11.1h-0.1c-0.3,0-0.6,0.3-0.6,0.7v35.1c0,0.3,0.3,0.6,0.6,0.6h0.1c0.4,0,0.7-0.3,0.7-0.6V11.8
			C149.8,11.4,149.5,11.1,149.1,11.1z"/>
		<path id="XMLID_508_" d="M153.4,0h-0.3c-0.3,0-0.6,0.2-0.7,0.5l-3.3,5.7c-0.1,0.2-0.1,0.4,0,0.5c0.1,0.1,0.2,0.2,0.4,0.2h0.4
			c0.3,0,0.6-0.2,0.7-0.5l3.2-5.6c0.1-0.2,0.2-0.4,0.1-0.6C153.8,0.1,153.7,0,153.4,0z"/>
		<path id="XMLID_511_" d="M166,11.1c-3.7,0-6.7,3-6.7,6.8v29c0,0.3,0.3,0.6,0.6,0.6h0.1c0.4,0,0.7-0.3,0.7-0.6V30h10.6v16.9
			c0,0.3,0.3,0.6,0.6,0.6h0.2c0.3,0,0.6-0.3,0.6-0.6v-29C172.8,14.2,169.7,11.1,166,11.1z M171.3,17.9v10.7h-10.6V17.9
			c0-2.9,2.4-5.3,5.2-5.3C168.9,12.6,171.3,15,171.3,17.9z"/>
	</g>
	<g id="XMLID_432_">
		<g id="XMLID_673_">
			<path id="XMLID_698_" class="st0" d="M7.1,62.3v16.3h9.4c1,0,1.7,0.8,1.7,1.7v3.5c0,1-0.8,1.7-1.7,1.7H7.1v16.4h9.4
				c1,0,1.7,0.8,1.7,1.7v3.5c0,1-0.8,1.7-1.7,1.7H3.6c-1.9,0-3.5-1.6-3.5-3.5V58.8c0-1.9,1.5-3.5,3.5-3.5h12.9c1,0,1.7,0.8,1.7,1.7
				v3.5c0,1-0.8,1.7-1.7,1.7H7.1z"/>
			<path id="XMLID_696_" class="st0" d="M45.1,103.6v3.5c0,0.9-0.8,1.7-1.7,1.7H30.6c-1.9,0-3.5-1.6-3.5-3.5V57.1
				c0-1,0.8-1.7,1.7-1.7h3.5c0.9,0,1.7,0.8,1.7,1.7v44.8h9.3C44.3,101.9,45.1,102.7,45.1,103.6z"/>
			<path id="XMLID_694_" class="st0" d="M59.9,62.3v16.3h9.4c1,0,1.7,0.8,1.7,1.7v3.5c0,1-0.8,1.7-1.7,1.7h-9.4v16.4h9.4
				c1,0,1.7,0.8,1.7,1.7v3.5c0,1-0.8,1.7-1.7,1.7H56.4c-1.9,0-3.5-1.6-3.5-3.5V58.8c0-1.9,1.5-3.5,3.5-3.5h12.9c1,0,1.7,0.8,1.7,1.7
				v3.5c0,1-0.8,1.7-1.7,1.7H59.9z"/>
			<path id="XMLID_692_" class="st0" d="M97.9,71.5v-3.7c0-3-2.5-5.5-5.5-5.5s-5.5,2.5-5.5,5.5v28.6c0,3,2.5,5.5,5.5,5.5
				s5.5-2.5,5.5-5.5v-4c0-1,0.8-1.7,1.7-1.7h3.5c1,0,1.7,0.8,1.7,1.7v4c0,6.8-5.6,12.4-12.4,12.4c-6.9,0-12.4-5.6-12.4-12.4V67.8
				c0-6.8,5.5-12.4,12.4-12.4c6.8,0,12.4,5.6,12.4,12.4v3.7c0,1-0.8,1.7-1.7,1.7h-3.5C98.6,73.2,97.9,72.4,97.9,71.5z"/>
			<path id="XMLID_690_" class="st0" d="M128.5,57.1v3.5c0,1-0.8,1.7-1.7,1.7h-4.9v44.8c0,0.9-0.8,1.7-1.7,1.7h-3.5
				c-1,0-1.7-0.9-1.7-1.7V62.3h-4.9c-1,0-1.7-0.8-1.7-1.7v-3.5c0-1,0.8-1.7,1.7-1.7h16.6C127.7,55.4,128.5,56.1,128.5,57.1z"/>
			<path id="XMLID_687_" class="st0" d="M160.6,73c0,3.6-1.4,6.8-3.8,9.1c2.4,2.3,3.8,5.4,3.8,9v16.1c0,0.9-0.8,1.7-1.7,1.7h-3.5
				c-1,0-1.7-0.9-1.7-1.7V91c0-3-2.5-5.5-5.5-5.5h-5.5v21.6c0,0.9-0.9,1.7-1.7,1.7h-3.5c-1,0-1.7-0.9-1.7-1.7V58.8
				c0-1.9,1.5-3.5,3.5-3.5h9c6.9,0,12.4,5.6,12.4,12.4V73z M153.7,67.8c0-3-2.5-5.5-5.5-5.5h-5.5v16.3h5.5c3,0,5.5-2.5,5.5-5.6V67.8
				z"/>
			<path id="XMLID_683_" class="st0" d="M194.5,67.8v28.5c0,6.9-5.6,12.5-12.4,12.5c-6.9,0-12.5-5.6-12.5-12.5V67.8
				c0-6.8,5.6-12.4,12.5-12.4C188.9,55.4,194.5,61,194.5,67.8z M187.6,67.8c0-3-2.5-5.5-5.5-5.5c-3.1,0-5.6,2.5-5.6,5.5v28.5
				c0,3.1,2.5,5.6,5.6,5.6c3,0,5.5-2.5,5.5-5.6V67.8z M179.1,46.2l6.3-11c0.5-1.1,2.2-1.9,3.3-1.9h3.3c1.3,0,1.8,0.9,1.2,1.9
				l-6.3,11c-0.5,1.1-2.2,1.9-3.3,1.9h-3.3C179,48.1,178.5,47.3,179.1,46.2z"/>
			<path id="XMLID_681_" class="st0" d="M228.4,67.8v39.3c0,0.9-0.8,1.7-1.7,1.7h-3.5c-1,0-1.7-0.9-1.7-1.7V67.8
				c0-3-2.5-5.5-5.5-5.5c-3.1,0-5.6,2.5-5.6,5.5v39.3c0,0.9-0.8,1.7-1.7,1.7h-3.5c-1,0-1.7-0.9-1.7-1.7V67.8
				c0-6.8,5.6-12.4,12.5-12.4C222.8,55.4,228.4,61,228.4,67.8z"/>
			<path id="XMLID_679_" class="st0" d="M244.3,107.1c0,1-0.8,1.7-1.7,1.7h-3.5c-1,0-1.7-0.8-1.7-1.7v-50c0-1,0.8-1.7,1.7-1.7h3.5
				c0.9,0,1.7,0.8,1.7,1.7V107.1z"/>
			<path id="XMLID_677_" class="st0" d="M271.2,71.5v-3.7c0-3-2.5-5.5-5.5-5.5s-5.5,2.5-5.5,5.5v28.6c0,3,2.5,5.5,5.5,5.5
				s5.5-2.5,5.5-5.5v-4c0-1,0.8-1.7,1.7-1.7h3.5c1,0,1.7,0.8,1.7,1.7v4c0,6.8-5.6,12.4-12.4,12.4c-6.9,0-12.4-5.6-12.4-12.4V67.8
				c0-6.8,5.5-12.4,12.4-12.4c6.8,0,12.4,5.6,12.4,12.4v3.7c0,1-0.8,1.7-1.7,1.7h-3.5C272,73.2,271.2,72.4,271.2,71.5z"/>
			<path id="XMLID_674_" class="st0" d="M310.9,67.9v39.2c0,1-0.8,1.7-1.7,1.7h-3.5c-1,0-1.7-0.8-1.7-1.7V85.6h-11.1v21.5
				c0,1-0.8,1.7-1.7,1.7h-3.5c-1,0-1.7-0.8-1.7-1.7V67.9c0-6.8,5.6-12.4,12.5-12.4C305.3,55.5,310.9,61.1,310.9,67.9z M304,67.9
				c0-3-2.5-5.5-5.5-5.5c-3.1,0-5.6,2.5-5.6,5.5v10.8H304V67.9z"/>
		</g>
	</g>
</g>
</svg>
