<?xml version="1.0" encoding="utf-8"?>
<!-- Generator: Adobe Illustrator 19.0.0, SVG Export Plug-In . SVG Version: 6.00 Build 0)  -->
<svg version="1.1" id="Capa_1" xmlns="http://www.w3.org/2000/svg" xmlns:xlink="http://www.w3.org/1999/xlink" x="0px" y="0px"
	 viewBox="0 0 57.5 67.5" style="enable-background:new 0 0 57.5 67.5;" xml:space="preserve">
<style type="text/css">
	.st0{fill:#052B24;}
</style>
<g id="XMLID_105_">
	<g id="XMLID_157_">
		<g id="XMLID_158_">
			<path id="XMLID_159_" class="st0" d="M57.5,59.5c0,4.4-3.6,8-8,8H8c-4.4,0-8-3.6-8-8V8c0-4.4,3.6-8,8-8h41.5c4.4,0,8,3.6,8,8
				V59.5z M3.4,56.1c0,4.4,3.6,8,8,8h34.7c4.4,0,8-3.6,8-8V11.4c0-4.4-3.6-8-8-8H11.4c-4.4,0-8,3.6-8,8V56.1z"/>
		</g>
	</g>
</g>
<g id="XMLID_109_">
	<path id="XMLID_110_" class="st0" d="M37.3,30.2c1.9,1.9,1.9,5.1,0,7.1L24.9,49.7c-1.9,1.9-3.5,1.3-3.5-1.5v-29
		c0-2.7,1.6-3.4,3.5-1.5L37.3,30.2z"/>
</g>
</svg>
