<?xml version="1.0" encoding="utf-8"?>
<!-- Generator: Adobe Illustrator 19.0.0, SVG Export Plug-In . SVG Version: 6.00 Build 0)  -->
<svg version="1.1" id="Capa_1" xmlns="http://www.w3.org/2000/svg" xmlns:xlink="http://www.w3.org/1999/xlink" x="0px" y="0px"
	 viewBox="0 0 57.5 67.5" style="enable-background:new 0 0 57.5 67.5;" xml:space="preserve">
<style type="text/css">
	.st0{fill:#052B24;}
</style>
<g id="XMLID_109_">
	<path id="XMLID_110_" class="st0" d="M10.4,53.9c0,0-0.1,0-0.1,0c-0.9-0.1-1.5-0.7-1.8-1.6c-0.9-3.3,3.5-6.6,8.4-9.2
		c1.8-2.8,3.7-6,5-8.9c1-2.1,1.7-4.4,2.1-6.7c-2.1-3-3.7-6.2-3.6-9c0.1-1.6,0.7-3.1,1.9-4.1c1.6-1.4,2.9-0.6,3.3-0.3
		c2.1,1.5,2.3,7.1,1.4,12.7c1.2,1.5,2.6,3.2,4.2,4.9c1.8,1.9,3.7,3.3,5.4,4.5c4.5-0.7,8.5-0.6,10.2,0.9c0.8,0.7,1.2,1.6,1,2.7
		c-0.2,1.1-1,1.9-2.1,2.3c-2.2,0.7-5.9-0.5-9.8-2.9c-2.3,0.4-4.9,1.1-7.7,2.1c-3.8,1.3-6.9,2.7-9.5,4C15.8,49.7,12.5,53.9,10.4,53.9
		z M26.2,30.3c-0.5,1.8-1.1,3.6-1.8,5c-0.5,1.1-1.6,3.2-3,5.5c2.4-1,4.5-1.8,5.8-2.3c1.8-0.6,3.7-1.2,5.6-1.7
		c-1.3-1-2.5-2.1-3.7-3.3C28.2,32.6,27.2,31.5,26.2,30.3z M41,38.5c2.1,0.9,3.6,1,4,0.7C44.8,38.8,43.3,38.5,41,38.5z M24,16.7
		c-0.5,0.5-0.8,1.2-0.8,2c0,1.2,0.4,2.7,1.3,4.4C24.7,20.1,24.5,17.6,24,16.7z"/>
</g>
<g id="XMLID_105_">
	<g id="XMLID_157_">
		<g id="XMLID_158_">
			<path id="XMLID_159_" class="st0" d="M57.5,59.5c0,4.4-3.6,8-8,8H8c-4.4,0-8-3.6-8-8V8c0-4.4,3.6-8,8-8h41.5c4.4,0,8,3.6,8,8
				V59.5z M3.4,56.1c0,4.4,3.6,8,8,8h34.7c4.4,0,8-3.6,8-8V11.4c0-4.4-3.6-8-8-8H11.4c-4.4,0-8,3.6-8,8V56.1z"/>
		</g>
	</g>
</g>
</svg>
