<?xml version="1.0" encoding="utf-8"?>
<!-- Generator: Adobe Illustrator 19.0.0, SVG Export Plug-In . SVG Version: 6.00 Build 0)  -->
<svg version="1.1" id="Capa_1" xmlns="http://www.w3.org/2000/svg" xmlns:xlink="http://www.w3.org/1999/xlink" x="0px" y="0px"
	 viewBox="0 0 68.2 68.2" style="enable-background:new 0 0 68.2 68.2;" xml:space="preserve">
<style type="text/css">
	.st0{opacity:0.12;fill:#FFFFFF;}
	.st1{fill:#FFFFFF;}
</style>
<circle id="XMLID_94_" class="st0" cx="34.1" cy="34.1" r="34.1"/>
<g id="XMLID_58_">
	<g id="XMLID_64_">
		<path id="XMLID_69_" class="st1" d="M55.6,37.7c-1.2,1.2-3,1.2-4.2,0L44,30.3c-1.2-1.2-0.8-2.1,0.9-2.1h17.2c1.6,0,2,0.9,0.9,2.1
			L55.6,37.7z"/>
	</g>
</g>
<g id="XMLID_75_">
	<path id="XMLID_92_" class="st1" d="M34.2,56.3c-12.3,0-22.4-10-22.4-22.4s10-22.4,22.4-22.4c12.3,0,22.4,10,22.4,22.4
		c0,1.6-1.3,3-3,3s-3-1.3-3-3c0-9.1-7.4-16.4-16.4-16.4c-9.1,0-16.4,7.4-16.4,16.4s7.4,16.4,16.4,16.4c4.1,0,8-1.5,11-4.2
		c1.2-1.1,3.1-1,4.2,0.2c1.1,1.2,1,3.1-0.2,4.2C45,54.2,39.7,56.3,34.2,56.3z"/>
</g>
</svg>
