<?xml version="1.0" encoding="utf-8"?>
<!-- Generator: Adobe Illustrator 19.0.0, SVG Export Plug-In . SVG Version: 6.00 Build 0)  -->
<svg version="1.1" id="Capa_1" xmlns="http://www.w3.org/2000/svg" xmlns:xlink="http://www.w3.org/1999/xlink" x="0px" y="0px"
	 viewBox="0 0 26.5 26.5" style="enable-background:new 0 0 26.5 26.5;" xml:space="preserve">
<style type="text/css">
	.st0{fill:#8C0D37;}
</style>
<path id="XMLID_1223_" class="st0" d="M13.2,0C5.9,0,0,5.9,0,13.2c0,7.3,5.9,13.2,13.2,13.2s13.2-5.9,13.2-13.2
	C26.5,5.9,20.6,0,13.2,0z M14.7,22.5c-0.5,0.5-1.1,0.8-1.9,0.8c-0.7,0-1.3-0.2-1.7-0.7c-0.4-0.5-0.6-1-0.6-1.7
	c0-0.7,0.2-1.3,0.7-1.8c0.5-0.5,1.1-0.8,2-0.8c0.7,0,1.3,0.2,1.7,0.7c0.4,0.4,0.6,1,0.6,1.6C15.4,21.4,15.1,22,14.7,22.5z
	 M14.5,13.4l-0.3,1.7c0,0.2-0.2,0.4-0.5,0.4h-1.1c-0.2,0-0.5-0.1-0.5-0.3L11.6,12c0-0.3,0.1-0.5,0.4-0.5C14,11.1,15,10.1,15,8.6
	C15,6.8,13.2,6,9.5,6C9.3,6,9.2,5.9,9.1,5.8C9,5.7,9,5.5,9,5.4l0.4-1.8c0-0.2,0.3-0.4,0.5-0.4c5.7,0,8.6,1.7,8.6,5
	C18.5,10.4,17.1,12.2,14.5,13.4z"/>
</svg>
