<?xml version="1.0" encoding="utf-8"?>
<!-- Generator: Adobe Illustrator 19.0.0, SVG Export Plug-In . SVG Version: 6.00 Build 0)  -->
<svg version="1.1" id="Capa_1" xmlns="http://www.w3.org/2000/svg" xmlns:xlink="http://www.w3.org/1999/xlink" x="0px" y="0px"
	 viewBox="0 0 30.2 30.2" style="enable-background:new 0 0 30.2 30.2;" xml:space="preserve">
<style type="text/css">
	.st0{opacity:0.2;fill:#27B193;}
	.st1{fill:#27B193;}
</style>
<g id="XMLID_979_">
	<g id="XMLID_984_">
		<circle id="XMLID_985_" class="st0" cx="15.1" cy="15.1" r="15.1"/>
	</g>
	<g id="XMLID_980_">
		<path id="XMLID_981_" class="st1" d="M14.8,22.5c-1.2,0-2.7,0-4.2-0.1c-1.1,0-2.2-0.1-3.3-0.2c-1.1-0.1-2.1-1.1-2.3-2.3
			c-0.2-1.2-0.3-2.4-0.3-3.6c0-1.4,0-2.8,0.1-4.3C4.9,11.4,5,10.7,5.2,10c0.3-1.3,1.3-2,2.7-2.1c3.2-0.2,6.4-0.3,9.6-0.2
			c1.7,0,3.5,0.1,5.2,0.3c1.3,0.1,2.2,1,2.4,2.3c0.2,1.2,0.3,2.4,0.3,3.6c0,1.4,0,2.9-0.1,4.3c-0.1,0.7-0.1,1.4-0.3,2.1
			c-0.2,1-1,2-2.7,2.1C19.9,22.4,17.5,22.5,14.8,22.5z M12.2,15.1c0,1.2,0,2.4,0,3.5c0,0.3,0.1,0.6,0.4,0.8c0.3,0.2,0.6,0.1,0.8-0.1
			c1.9-1.2,3.8-2.4,5.7-3.6c0.6-0.3,0.6-0.9,0-1.3c-1.9-1.2-3.8-2.4-5.7-3.6c-0.3-0.2-0.5-0.3-0.8-0.1c-0.3,0.2-0.4,0.4-0.4,0.7
			C12.2,12.7,12.2,13.9,12.2,15.1z"/>
	</g>
</g>
</svg>
