<?xml version="1.0" encoding="utf-8"?>
<!-- Generator: Adobe Illustrator 19.0.0, SVG Export Plug-In . SVG Version: 6.00 Build 0)  -->
<svg version="1.1" id="Capa_1" xmlns="http://www.w3.org/2000/svg" xmlns:xlink="http://www.w3.org/1999/xlink" x="0px" y="0px"
	 viewBox="0 0 20.2 20.2" style="enable-background:new 0 0 20.2 20.2;" xml:space="preserve">
<style type="text/css">
	.st0{fill:#FFFFFF;}
</style>
<g id="XMLID_14_">
	<path id="XMLID_26_" class="st0" d="M10.1,0C4.5,0,0,4.5,0,10.1c0,5.6,4.5,10.1,10.1,10.1c5.6,0,10.1-4.5,10.1-10.1
		C20.2,4.5,15.6,0,10.1,0z M10.1,18.2c-4.5,0-8.1-3.6-8.1-8.1S5.6,2,10.1,2s8.1,3.6,8.1,8.1S14.6,18.2,10.1,18.2z"/>
	<path id="XMLID_27_" class="st0" d="M13.1,7.4l-1.9,1.1V3.7c0-0.5-0.5-1-1-1s-1,0.4-1,1V10c0,0.3,0,0.6,0.2,0.8
		c0.2,0.2,0.4,0.3,0.6,0.3c0.2,0,0.3,0,0.4-0.1l3.3-1.8c0.5-0.3,0.7-0.9,0.5-1.3C14.1,7.3,13.6,7.1,13.1,7.4z"/>
</g>
</svg>
