<?xml version="1.0" encoding="utf-8"?>
<!-- Generator: Adobe Illustrator 19.0.0, SVG Export Plug-In . SVG Version: 6.00 Build 0)  -->
<svg version="1.1" id="Capa_1" xmlns="http://www.w3.org/2000/svg" xmlns:xlink="http://www.w3.org/1999/xlink" x="0px" y="0px"
	 viewBox="0 0 30.2 30.2" style="enable-background:new 0 0 30.2 30.2;" xml:space="preserve">
<style type="text/css">
	.st0{opacity:0.2;fill:#27B193;}
	.st1{fill:#27B193;}
</style>
<g id="XMLID_992_">
	<circle id="XMLID_999_" class="st0" cx="15.1" cy="15.1" r="15.1"/>
	<g id="XMLID_993_">
		<path id="XMLID_994_" class="st1" d="M15.1,23.9c-2.1,0-4.3,0-6.4,0c-0.5,0-1-0.1-1.5-0.4c-0.7-0.5-0.9-1.2-0.9-2
			c0-2.9,0-5.8,0-8.6c0-1.4,0-2.8,0-4.3c0-0.5,0.1-1,0.4-1.5c0.5-0.7,1.2-0.9,1.9-0.9c2.4,0,4.7,0,7.1,0c1.9,0,3.9,0,5.8,0
			c0.5,0,1,0.1,1.5,0.4c0.6,0.5,0.9,1.1,0.9,1.9c0,4.3,0,8.7,0,13c0,1.2-0.7,2.1-1.8,2.3c-0.2,0-0.4,0.1-0.6,0.1
			C19.4,23.9,17.2,23.9,15.1,23.9z M15.1,21.9c2,0,4,0,6,0c0.5,0,0.8-0.3,0.8-0.8c0-2.4,0-4.7,0-7.1c0-0.2-0.1-0.2-0.2-0.2
			c-0.4,0-0.7,0-1.1,0c-0.2,0-0.2,0-0.2,0.2c0.2,0.8,0.2,1.6,0,2.4c-0.3,1.1-0.8,2.1-1.7,2.8c-1.1,0.9-2.4,1.4-3.8,1.4
			c-0.7,0-1.3-0.1-1.9-0.4c-1.4-0.6-2.5-1.6-3.1-3c-0.4-1-0.5-2.1-0.2-3.2c0-0.2,0-0.2-0.2-0.2c-0.4,0-0.8,0-1.1,0
			c-0.2,0-0.2,0-0.2,0.2c0,2.2,0,4.4,0,6.7c0,0.1,0,0.3,0,0.4c0,0.3,0.1,0.5,0.3,0.6c0.2,0.1,0.4,0.1,0.6,0.1
			C11.1,21.9,13.1,21.9,15.1,21.9z M11.6,15.1c0,0.2,0,0.4,0.1,0.6c0.3,1.6,1.7,2.7,3.5,2.7c0.9,0,1.7-0.3,2.4-0.9
			c1.3-1.1,1.5-3.1,0.5-4.5c-0.9-1.1-2.1-1.6-3.5-1.4C12.9,12,11.6,13.4,11.6,15.1z M20.1,11.7L20.1,11.7c0.3,0,0.7,0,1,0
			c0.4,0,0.7-0.3,0.7-0.7c0-0.6,0-1.3,0-1.9c0-0.4-0.3-0.7-0.7-0.7c-0.7-0.1-1.4-0.1-2.1,0c-0.5,0-0.7,0.3-0.7,0.8
			c0,0.6,0,1.2,0,1.8c0,0.5,0.3,0.8,0.8,0.8C19.5,11.7,19.8,11.7,20.1,11.7z"/>
	</g>
</g>
</svg>
