<?xml version="1.0" encoding="utf-8"?>
<!-- Generator: Adobe Illustrator 19.0.0, SVG Export Plug-In . SVG Version: 6.00 Build 0)  -->
<svg version="1.1" id="Capa_1" xmlns="http://www.w3.org/2000/svg" xmlns:xlink="http://www.w3.org/1999/xlink" x="0px" y="0px"
	 viewBox="0 0 30.2 30.2" style="enable-background:new 0 0 30.2 30.2;" xml:space="preserve">
<style type="text/css">
	.st0{opacity:0.2;fill:#27B193;}
	.st1{fill:#27B193;}
</style>
<g id="XMLID_986_">
	<circle id="XMLID_991_" class="st0" cx="15.1" cy="15.1" r="15.1"/>
	<g id="XMLID_987_">
		<path id="XMLID_990_" class="st1" d="M16.2,13.6c0.3-0.3,0.5-0.6,0.8-0.9c0.6-0.5,1.3-0.8,2.1-0.9c1-0.1,1.9,0,2.8,0.5
			c1,0.6,1.5,1.4,1.9,2.5c0.2,0.7,0.3,1.5,0.3,2.3c0,2.1,0,4.2,0,6.3c0,0.3,0,0.3-0.3,0.3c-1.1,0-2.2,0-3.4,0c-0.3,0-0.3,0-0.3-0.3
			c0-2.1,0-4.2,0-6.3c0-0.5-0.1-0.9-0.3-1.3c-0.3-0.7-1-1-1.7-0.9c-0.9,0.1-1.5,0.5-1.8,1.3c-0.2,0.3-0.2,0.7-0.2,1.1
			c0,2,0,4.1,0,6.1c0,0.3,0,0.3-0.3,0.3c-1.1,0-2.1,0-3.2,0c-0.4,0-0.4,0-0.4-0.4c0-3.5,0-6.9,0-10.4c0-0.2,0-0.5,0-0.7
			c0-0.1,0-0.2,0.2-0.2c1.2,0,2.3,0,3.5,0c0.2,0,0.2,0.1,0.2,0.2C16.2,12.7,16.2,13.2,16.2,13.6z"/>
		<path id="XMLID_989_" class="st1" d="M10.2,17.9c0,1.8,0,3.7,0,5.5c0,0.3,0,0.3-0.3,0.3c-1.1,0-2.2,0-3.3,0c-0.3,0-0.3,0-0.3-0.3
			c0-3.7,0-7.4,0-11.1c0-0.3,0-0.3,0.3-0.3c1.1,0,2.2,0,3.4,0c0.3,0,0.3,0,0.3,0.3C10.2,14.2,10.2,16.1,10.2,17.9z"/>
		<path id="XMLID_988_" class="st1" d="M8.3,10.5c-1.1,0-2-0.6-2.2-1.6C5.9,7.7,6.7,6.6,8,6.5c0.4,0,0.9,0,1.3,0.2
			c0.9,0.4,1.3,1.2,1.2,2c-0.1,0.9-0.7,1.6-1.5,1.8C8.7,10.5,8.5,10.5,8.3,10.5z"/>
	</g>
</g>
</svg>
