<?xml version="1.0" encoding="utf-8"?>
<!-- Generator: Adobe Illustrator 19.0.0, SVG Export Plug-In . SVG Version: 6.00 Build 0)  -->
<svg version="1.1" id="Capa_1" xmlns="http://www.w3.org/2000/svg" xmlns:xlink="http://www.w3.org/1999/xlink" x="0px" y="0px"
	 viewBox="0 0 30.2 30.2" style="enable-background:new 0 0 30.2 30.2;" xml:space="preserve">
<style type="text/css">
	.st0{opacity:0.57;}
	.st1{opacity:0.2;fill:#27B193;}
	.st2{fill:#27B193;}
</style>
<g id="XMLID_977_" class="st0">
	<g id="XMLID_978_">
		<g id="XMLID_1000_">
			<circle id="XMLID_1003_" class="st1" cx="15.1" cy="15.1" r="15.1"/>
			<g id="XMLID_1001_">
				<path id="XMLID_1002_" class="st2" d="M5.4,21.3C5.4,21.3,5.4,21.3,5.4,21.3c0.1,0,0.2-0.1,0.2,0c0.6,0.1,1.2,0,1.8,0
					c1.4-0.2,2.6-0.7,3.7-1.5c0,0,0.1,0,0.1-0.1c0-0.1-0.1,0-0.1-0.1c-1.6-0.2-2.7-1-3.3-2.4c0-0.1-0.2-0.2-0.1-0.3
					c0.1-0.1,0.2,0,0.3,0c0.4,0,0.9,0,1.3-0.1c-0.5-0.1-0.9-0.3-1.2-0.5c-1.1-0.7-1.8-1.8-1.9-3.2c0-0.1-0.1-0.2,0-0.3
					c0.1-0.1,0.2,0,0.2,0.1c0.4,0.2,0.9,0.3,1.4,0.4c-0.1-0.1-0.1-0.1-0.1-0.1c-1.5-1.2-2-3.3-1.1-5c0.1-0.2,0.1-0.2,0.3,0
					c1.4,1.6,3,2.7,5,3.4c0.9,0.3,1.8,0.5,2.8,0.6c0.2,0,0.2,0,0.2-0.2c-0.1-0.5-0.1-1,0-1.5c0.4-1.5,1.3-2.6,2.8-3
					c1.5-0.5,2.8-0.1,4,0.9c0.1,0.1,0.2,0.1,0.3,0.1c0.8-0.2,1.5-0.4,2.1-0.8c0.1,0,0.1-0.1,0.2,0c0,0,0,0.1,0,0.2
					c-0.3,0.8-0.8,1.4-1.4,1.9c0,0-0.1,0-0.1,0.1c0.2,0,0.5-0.1,0.7-0.1c0.5-0.1,1-0.3,1.4-0.5c0,0,0,0.1,0,0.1c0,0-0.1,0.1-0.1,0.1
					c-0.5,0.7-1.1,1.3-1.8,1.8c-0.1,0.1-0.1,0.2-0.1,0.3c0,0.6,0,1.2-0.1,1.7c-0.2,1.5-0.7,3-1.5,4.3c-2.5,4.3-6.8,6.1-11.4,5.5
					c-1.6-0.2-3-0.7-4.4-1.6C5.5,21.4,5.4,21.3,5.4,21.3z"/>
			</g>
		</g>
	</g>
</g>
</svg>
